<?xml version="1.0" encoding="utf-8"?>
<svg xmlns="http://www.w3.org/2000/svg">
<symbol id="plug" viewBox="0 0 192 112"><g fill="none" fill-rule="evenodd"><path d="M0 0h192v112H0z"/><g transform="translate(39)"><g fill-rule="nonzero"><path d="M6.4 60H3.9C1.7 60 0 61.7 0 63.9s1.7 4 4 4h6.3v-4c-.2-2.2-1.8-4-4-4zm77.4 0h2.4c2.3 0 4 1.7 4 3.9s-1.7 4-4 4h-6.4v-4c.2-2.2 2-4 4-4zm-65 49.7H9.2c-2 0-3.8-1.7-3.8-3.7V91.6h17.1V106c0 2-1.6 3.7-3.7 3.7zm62.4 0h-9.6c-2 0-3.8-1.7-3.8-3.7V91.6H85V106c0 2-1.7 3.7-3.7 3.7z" fill="#560491"/><path d="M77.8 102.6H12.6c-4 0-7.3-2.8-7.9-6.7l-3-19a8 8 0 0 1 7.9-9h71.2a8 8 0 0 1 7.9 9l-3 19a8 8 0 0 1-8 6.7zm3.4-34.8h-72l7.9-20.2A12 12 0 0 1 28.4 40h33.8c4.9 0 9.4 3 11.3 7.6l7.7 20.2z" fill="#7242EC"/><path fill="#5FD5E2" d="M13.5 67.8l7-17.7a8.5 8.5 0 0 1 7.7-6.2H62c3.2 0 6.6 2.4 7.9 6.2l7 17.7H13.4z"/><g fill="#FFF" transform="translate(11.4 77.6)"><ellipse cx="59.9" cy="7.6" rx="7.5" ry="7.5"/><ellipse cx="7.5" cy="7.6" rx="7.5" ry="7.5"/><ellipse cx="59.9" cy="7.6" rx="7.5" ry="7.5"/><ellipse cx="59.9" cy="7.6" rx="4.3" ry="4.3"/><ellipse cx="7.5" cy="7.6" rx="7.5" ry="7.5"/></g><path d="M71.4 78.9c4 0 7.1 3 7.5 6.9v-.6a7.5 7.5 0 0 0-15 0v.6c.3-4 3.5-7 7.5-7zm-52.4 0c4 0 7.1 3 7.5 6.9v-.6a7.5 7.5 0 0 0-15 0v.6c.3-4 3.5-7 7.5-7z" fill="#F2F2F2"/><path d="M5.4 101.9h17.1v2.8h-17zm62.4 0H85v2.8H68z" fill="#334A5E"/><path fill="#36ADCF" d="M85.1 102.6H5.4a2.6 2.6 0 0 1-2.6-2.6v-1.7c0-1.5 1.1-2.6 2.6-2.6h79.7c1.5 0 2.6 1.1 2.6 2.6v1.7c0 1.5-1.1 2.6-2.6 2.6z"/><path d="M52.4 43.9l-19 23.7H30l19-23.7zm8 0L41.6 67.6H36l19-23.7zm-1.6 48.8H31.6s-2.1-9.4 0-11.4c4.8-4.9 22.3-4.9 27.2 0 2 2 0 11.4 0 11.4z" fill="#FFF"/></g><ellipse cx="85.4" cy="28.6" fill="#7242EC" stroke="#5FD5E2" stroke-width="2" rx="28.7" ry="28.6"/><path fill="#FFF" fill-rule="nonzero" d="M106.4 39.2H63.9s-3.3-14.6 0-17.8c7.6-7.6 34.9-7.6 42.5 0 3.2 3.2 0 17.8 0 17.8z"/><text fill="#560491" font-family="Lato-Black, Lato" font-size="8" font-weight="700"><tspan x="69.6" y="31.9">XYF-223</tspan></text></g></g>
</symbol>
<symbol id="star" viewBox="0 0 60 60"><g fill="#9724BA"><path d="M11.3 41.2H9.4V44H6.6v2h2.8v2.8h1.9V46H14v-2h-2.8z"/><path stroke="#9724BA" stroke-width="2" d="M56 17.2a10.4 10.4 0 0 0-7.3-3v-3.8h1.9a2.8 2.8 0 0 0 2.8-2.9V3.8A2.8 2.8 0 0 0 50.6 1H30a2.8 2.8 0 0 0-2.8 2.8v3.8a2.8 2.8 0 0 0 2.8 2.8h1.9V14a10.4 10.4 0 0 0-7.2 3 10.4 10.4 0 0 0-1.9 2.6H6.6a2.8 2.8 0 0 0-2.8 2.8v3.8A2.8 2.8 0 0 0 6.6 29v2h-1A4.7 4.7 0 0 0 1 35.6v18.7C1 57 3.1 59 5.7 59H59V24.6c0-2.8-1.1-5.4-3-7.4zM30 8.5a1 1 0 0 1-1-1V3.8a1 1 0 0 1 1-1h20.6a1 1 0 0 1 1 1v3.8a1 1 0 0 1-1 .9H30zm16.8 1.9V14h-13v-3.8h13zM5.7 26.3v-3.8a1 1 0 0 1 1-1h18.6a1 1 0 0 1 1 1v3.8a1 1 0 0 1-1 .9H6.6a1 1 0 0 1-1-1zM8.5 29h15v1.8h-15V29zM2.9 39.4h15v11.2h-15V39.4zM5.7 57a2.8 2.8 0 0 1-2.8-2.8v-1.9h16.8v-15H3v-1.8a2.8 2.8 0 0 1 2.8-2.8h20.6a2.8 2.8 0 0 1 2.8 2.8v18.7a2.8 2.8 0 0 1-2.8 2.8H5.7zM30 57c.6-.8 1-1.7 1-2.8V35.6c0-2.6-2.2-4.7-4.7-4.7h-1v-1.8a2.8 2.8 0 0 0 2.8-2.8v-3.8a2.8 2.8 0 0 0-2.8-2.8H25c2-2.8 4.8-3.7 7.1-3.7h16.4c2.3 0 4.5.9 6.1 2.5a8.5 8.5 0 0 1 2.5 6.1v1.7H40.3v24.3H57V57H30zm27.1-29v20.6h-15V28.1h15z"/><path d="M45 31.9h9.3v1.8H45zm0 5.6h9.3v1.9H45zm3.7 5.6h1.9V45h-1.9zm3.7 0h2V45h-2zm-7.4 0h1.8V45H45z"/></g>
</symbol>
<symbol id="umbrella" viewBox="0 0 57 64"><g fill="#9724BA" stroke="#9724BA" stroke-width=".5"><path d="M49.4 51.7a5.6 5.6 0 1 0 0 11.2c3 0 5.6-2.5 5.6-5.6 0-3-2.6-5.6-5.6-5.6zm0 9.6a4 4 0 0 1-4.1-4 4 4 0 0 1 8.1 0 4 4 0 0 1-4 4zm-24-29a15.3 15.3 0 1 0 15.3 15.3c0-8.4-6.9-15.2-15.3-15.2zm0 29c-7.6 0-13.8-6.1-13.8-13.7a13.8 13.8 0 0 1 27.6 0c0 7.6-6.2 13.7-13.8 13.7z"/><path d="M25.4 36c-6.4 0-11.6 5.3-11.6 11.6a11.6 11.6 0 0 0 23.2 0c0-6.3-5.2-11.5-11.6-11.5zm0 21.7a10 10 0 0 1-10-10 10 10 0 0 1 20 0 10 10 0 0 1-10 10zm-4-43.2c3.7 0 6.7-3 6.7-6.8S25.1 1 21.3 1c-3.7 0-6.7 3-6.7 6.8s3 6.7 6.7 6.7zm0-12c2.8 0 5.2 2.4 5.2 5.2a5.2 5.2 0 0 1-10.5 0c0-2.8 2.4-5.2 5.2-5.2z"/><path d="M55.8 45.1a2.7 2.7 0 0 0-3.4-1.8l-2.5.8-5-11.9A3.7 3.7 0 0 0 41 30H29.4l-.2-1.9c.6.4 1.2.5 2 .5l9.2-.2a3.6 3.6 0 0 0 2.6-1 3.6 3.6 0 0 0 1-2.6 3.6 3.6 0 0 0-3.7-3.6h-2.8l-3.8.2h-.3a1.8 1.8 0 0 1-.2 0l-.2-.2-2.6-2.3-2-1.8c-.5-.4-2.7-2.5-4.3-2.4l-3.7.6a2 2 0 0 0-1.7 1A2.6 2.6 0 0 0 18 18l1.7 13a.8.8 0 0 0 .8.6.8.8 0 0 0 .7-.8l-1.6-13c0-.2 0-.5.2-.7.2-.2.4-.4.7-.4l3.6-.5c.7 0 2.3 1.1 3 2a1 1 0 0 0 .1 0l2 1.7 2.7 2.4.6.4.8.1h.3a736.6 736.6 0 0 1 3.8 0l2.8-.1a2 2 0 0 1 1.5.6 2 2 0 0 1 0 2.9 2 2 0 0 1-1.4.6L31 27c-1 0-2-.7-2.3-1.5a.8.8 0 0 0-1.5.4l.7 4.8a.8.8 0 0 0 .8.7H41a.8.8 0 0 0 .2 0 2 2 0 0 1 2.3 1.3l5.2 12.5c.2.4.6.6 1 .5l3.2-1a1.2 1.2 0 0 1 1.4.8 1.2 1.2 0 0 1-.8 1.5l-6 1.8c-1 .3-1.3.2-1.3.1a.8.8 0 0 0-.2 0c-.3-.2-.6-1-.8-1.4l-4.8-11.4a.8.8 0 0 0-1-.4.8.8 0 0 0-.4 1L43.7 48c.3.8.7 1.8 1.6 2.2.3.3.7.3 1.1.3l1.5-.2 6-1.9a2.7 2.7 0 0 0 2-3.4zM13.5 16.3c.8.3 1 1.4 1 1.6l1.9 14.8a.8.8 0 0 0 .8.7.8.8 0 0 0 .7-.8l-1.8-15c-.1-.9-.9-2.6-2.6-2.8a2.2 2.2 0 0 0-2.2-2H3.2A2.2 2.2 0 0 0 1 15v1.2a2.2 2.2 0 0 0 2.2 2.2h8a2.2 2.2 0 0 0 2.3-2zm-11-.1V15a.6.6 0 0 1 .7-.6h8a.6.6 0 0 1 .7.6v1.2a.6.6 0 0 1-.6.6H3.2a.6.6 0 0 1-.6-.6z"/></g>
</symbol></svg>