<svg xmlns="http://www.w3.org/2000/svg" viewBox="0 0 192 112">
    <g fill="none" fill-rule="evenodd">
        <path d="M0 0h192v112H0z"/>
        <g transform="translate(39)">
            <g fill-rule="nonzero">
                <g fill="#560491">
                    <path d="M6.387 59.97H3.945C1.691 59.97 0 61.653 0 63.898c0 2.244 1.69 3.927 3.945 3.927h6.387v-3.927c-.188-2.245-1.878-3.928-3.945-3.928zM83.784 59.97h2.443c2.254 0 3.945 1.683 3.945 3.928 0 2.244-1.691 3.927-3.945 3.927h-6.388v-3.927c.188-2.245 1.879-3.928 3.945-3.928zM18.786 109.714h-9.58c-2.067 0-3.758-1.683-3.758-3.74v-14.4h17.095v14.4c0 2.057-1.69 3.74-3.757 3.74zM81.154 109.714h-9.58c-2.067 0-3.757-1.683-3.757-3.74v-14.4h17.095v14.4c0 2.057-1.691 3.74-3.758 3.74z"/>
                </g>
                <g fill="#7242EC">
                    <path d="M77.773 102.608H12.587c-3.945 0-7.327-2.806-7.89-6.733L1.69 76.988c-.752-4.862 3.005-9.163 7.89-9.163h71.198c4.884 0 8.641 4.3 7.89 9.163l-3.006 18.887c-.564 3.927-3.945 6.733-7.89 6.733zM81.154 67.825H9.205l7.89-20.197c1.879-4.675 6.2-7.667 11.272-7.667H62.18c4.884 0 9.393 2.992 11.271 7.667l7.702 20.197z"/>
                </g>
                <path fill="#5FD5E2" d="M13.526 67.825l6.95-17.766c1.128-3.74 4.51-6.17 7.703-6.17h33.814c3.194 0 6.575 2.43 7.89 6.17l6.95 17.766H13.527z"/>
                <g fill="#FFF" transform="translate(11.448 77.584)">
                    <ellipse cx="59.938" cy="7.632" rx="7.514" ry="7.48"/>
                    <ellipse cx="7.526" cy="7.632" rx="7.514" ry="7.48"/>
                    <ellipse cx="59.938" cy="7.632" rx="7.514" ry="7.48"/>
                    <ellipse cx="59.938" cy="7.632" rx="4.321" ry="4.301"/>
                    <ellipse cx="7.526" cy="7.632" rx="7.514" ry="7.48"/>
                </g>
                <g fill="#F2F2F2">
                    <path d="M71.386 78.858c3.945 0 7.138 2.992 7.514 6.92v-.562c0-4.114-3.381-7.48-7.514-7.48-4.133 0-7.515 3.366-7.515 7.48v.561c.376-3.927 3.57-6.919 7.515-6.919zM18.974 78.858c3.945 0 7.138 2.992 7.514 6.92v-.562c0-4.114-3.382-7.48-7.514-7.48-4.133 0-7.515 3.366-7.515 7.48v.561c.376-3.927 3.57-6.919 7.515-6.919z"/>
                </g>
                <g fill="#334A5E">
                    <path d="M5.447 101.86h17.095v2.805H5.447zM67.816 101.86h17.095v2.805H67.816z"/>
                </g>
                <path fill="#36ADCF" d="M85.1 102.608H5.447c-1.503 0-2.63-1.123-2.63-2.618v-1.684c0-1.496 1.127-2.618 2.63-2.618h79.651c1.503 0 2.63 1.122 2.63 2.618v1.684c0 1.495-1.127 2.618-2.63 2.618z"/>
                <g fill="#FFF">
                    <path d="M52.412 43.888L33.44 67.638h-3.57l18.974-23.75zM60.49 43.888l-18.974 23.75h-5.635l18.973-23.75z"/>
                </g>
                <path fill="#FFF" d="M58.8 92.696H31.56s-2.066-9.35 0-11.407c4.884-4.862 22.355-4.862 27.24 0 2.066 2.057 0 11.407 0 11.407z"/>
            </g>
            <ellipse cx="85.442" cy="28.565" fill="#7242EC" stroke="#5FD5E2" stroke-width="2" rx="28.691" ry="28.565"/>
            <path fill="#FFF" fill-rule="nonzero" d="M106.394 39.201H63.86s-3.227-14.6 0-17.812c7.626-7.592 34.906-7.592 42.533 0 3.226 3.212 0 17.812 0 17.812z"/>
            <text fill="#560491" font-family="Lato-Black, Lato" font-size="8" font-weight="700">
                <tspan x="69.596" y="31.857">XYF-223</tspan>
            </text>
        </g>
    </g>
</svg>
