<svg xmlns="http://www.w3.org/2000/svg" viewBox="0 0 60 60">
    <g fill="#9724BA" fill-rule="nonzero">
        <path d="M11.287 41.223H9.415v2.809H6.617v1.872h2.798v2.809h1.872v-2.809h2.809v-1.872h-2.809z"/>
        <path stroke="#9724BA" stroke-width="2" d="M55.917 17.178a10.445 10.445 0 0 0-7.204-3.07V10.35h1.872a2.807 2.807 0 0 0 2.81-2.809V3.81A2.807 2.807 0 0 0 50.584 1H30a2.807 2.807 0 0 0-2.809 2.809v3.745A2.807 2.807 0 0 0 30 10.362h1.872v3.757a10.424 10.424 0 0 0-7.204 3.07 10.446 10.446 0 0 0-1.86 2.535H6.617a2.807 2.807 0 0 0-2.81 2.81v3.744a2.807 2.807 0 0 0 2.81 2.809v1.872H5.68C3.101 30.96 1 33.06 1 35.64V54.32C1 56.899 3.1 59 5.681 59H59V24.611c0-2.809-1.096-5.446-3.083-7.433zM30 8.478a.94.94 0 0 1-.936-.936V3.81A.94.94 0 0 1 30 2.872h20.585a.94.94 0 0 1 .937.937v3.745a.94.94 0 0 1-.937.936H30v-.012zm16.84 1.873v3.745H33.746V10.35H46.84zM5.682 26.255V22.51a.94.94 0 0 1 .936-.936H25.32a.94.94 0 0 1 .936.936v3.745a.94.94 0 0 1-.936.936H6.617a.933.933 0 0 1-.936-.936zm2.797 2.809h14.968v1.872H8.478v-1.872zM2.872 39.35h14.969v11.223H2.872V39.351zm2.81 17.777a2.807 2.807 0 0 1-2.81-2.81v-1.872h16.841V37.478H2.873v-1.872a2.807 2.807 0 0 1 2.808-2.809h20.586a2.807 2.807 0 0 1 2.808 2.809v18.713a2.807 2.807 0 0 1-2.808 2.809H5.68zm24.295 0c.594-.788.96-1.747.96-2.81v-18.7c0-2.581-2.102-4.682-4.682-4.682h-.936v-1.872a2.807 2.807 0 0 0 2.809-2.809V22.51a2.807 2.807 0 0 0-2.81-2.808h-.342c2.078-2.798 4.807-3.745 7.125-3.745h16.384c2.306 0 4.475.902 6.12 2.534a8.545 8.545 0 0 1 2.534 6.12v1.644H40.287v24.319h16.84v6.554h-27.15zm27.15-29v20.585H42.16V28.128h14.969z"/>
        <path d="M44.968 31.872h9.351v1.872h-9.351zM44.968 37.478h9.351v1.872h-9.351zM48.713 43.096h1.872v1.872h-1.872zM52.446 43.096h1.872v1.872h-1.872zM44.968 43.096h1.872v1.872h-1.872z"/>
    </g>
</svg>
