<svg xmlns="http://www.w3.org/2000/svg" width="57" height="64" viewBox="0 0 57 64">
    <g fill="#9724BA" fill-rule="nonzero" stroke="#9724BA" stroke-width=".5">
        <path d="M49.355 51.728c-3.09 0-5.603 2.504-5.603 5.582s2.514 5.581 5.603 5.581c3.09 0 5.604-2.503 5.604-5.581 0-3.078-2.514-5.582-5.604-5.582zm0 9.618c-2.234 0-4.051-1.81-4.051-4.036 0-2.226 1.817-4.036 4.051-4.036s4.052 1.81 4.052 4.036c0 2.225-1.818 4.036-4.052 4.036zM25.39 32.38c-8.444 0-15.314 6.844-15.314 15.256 0 8.412 6.87 15.255 15.315 15.255s15.315-6.843 15.315-15.255-6.87-15.256-15.315-15.256zm0 28.966c-7.588 0-13.763-6.15-13.763-13.71 0-7.56 6.175-13.71 13.764-13.71 7.589 0 13.763 6.15 13.763 13.71 0 7.56-6.174 13.71-13.763 13.71z"/>
        <path d="M25.39 36.058c-6.408 0-11.622 5.194-11.622 11.578 0 6.384 5.214 11.577 11.623 11.577 6.409 0 11.622-5.193 11.622-11.577S31.8 36.058 25.391 36.058zm0 21.61c-5.552 0-10.07-4.5-10.07-10.032s4.518-10.032 10.07-10.032c5.554 0 10.072 4.5 10.072 10.032 0 5.531-4.518 10.032-10.071 10.032zM21.338 14.5c3.736 0 6.776-3.028 6.776-6.75S25.074 1 21.338 1c-3.736 0-6.776 3.028-6.776 6.75s3.04 6.75 6.776 6.75zm0-11.954c2.88 0 5.225 2.334 5.225 5.204 0 2.87-2.344 5.204-5.225 5.204-2.88 0-5.224-2.334-5.224-5.204 0-2.87 2.343-5.204 5.224-5.204z"/>
        <path d="M55.813 45.141a2.738 2.738 0 0 0-3.405-1.82l-2.528.759-4.966-11.844c-.628-1.52-2.25-2.43-3.88-2.192l-11.588-.102-.268-1.796c.598.305 1.271.477 1.955.467l9.3-.163a3.603 3.603 0 0 0 2.54-1.103 3.574 3.574 0 0 0 1.018-2.567 3.616 3.616 0 0 0-3.685-3.543l-2.83.049c-1.27.022-2.537.044-3.806.072l-.286.007a1.791 1.791 0 0 1-.22-.002c-.032-.017-.113-.09-.162-.133-.876-.791-1.773-1.586-2.64-2.355l-2.007-1.779c-.458-.445-2.64-2.475-4.28-2.35a.805.805 0 0 0-.05.005l-3.607.502c-.69.078-1.31.42-1.746.962a2.594 2.594 0 0 0-.56 1.931l1.641 12.926a.775.775 0 0 0 .867.67.773.773 0 0 0 .673-.864l-1.64-12.914c-.032-.28.05-.558.23-.782.18-.223.434-.363.716-.394l.022-.003 3.589-.499c.711-.035 2.25 1.127 3.072 1.927a.94.94 0 0 0 .027.026l2.02 1.79c.865.767 1.76 1.56 2.631 2.346.147.132.347.313.632.424.313.123.61.116.827.111l.286-.006a736.65 736.65 0 0 1 3.797-.073l2.83-.05a2.047 2.047 0 0 1 1.472.581 2.044 2.044 0 0 1 .051 2.91c-.385.399-.9.623-1.45.632l-9.3.163c-.983.024-2.066-.66-2.314-1.45a.775.775 0 0 0-1.508.344l.725 4.862a.775.775 0 0 0 .76.659l12.248.108.041.002a.784.784 0 0 0 .154-.011 2.088 2.088 0 0 1 2.27 1.247l5.236 12.49c.153.366.559.557.94.443l3.198-.96a1.182 1.182 0 0 1 1.471.786 1.177 1.177 0 0 1-.79 1.465l-6.122 1.84c-.914.274-1.175.213-1.25.152a.767.767 0 0 0-.157-.099c-.33-.156-.648-.928-.839-1.39l-4.77-11.379a.777.777 0 0 0-1.015-.415.772.772 0 0 0-.417 1.011l4.747 11.323.02.049c.301.729.71 1.719 1.525 2.155.352.255.76.341 1.16.341.548 0 1.083-.16 1.443-.269l6.123-1.838a2.723 2.723 0 0 0 1.829-3.392zM13.468 16.345c.867.272 1.058 1.38 1.078 1.508l1.82 14.895a.775.775 0 0 0 .864.674.773.773 0 0 0 .677-.86l-1.822-14.907c-.13-.94-.842-2.662-2.622-2.89a2.182 2.182 0 0 0-2.169-1.942H3.182A2.18 2.18 0 0 0 1 14.997v1.183a2.18 2.18 0 0 0 2.182 2.173h8.112a2.18 2.18 0 0 0 2.174-2.008zM2.552 16.18v-1.183a.63.63 0 0 1 .63-.628h8.112a.63.63 0 0 1 .63.628v1.183a.63.63 0 0 1-.63.628H3.182a.63.63 0 0 1-.63-.628z"/>
    </g>
</svg>
