<svg xmlns="http://www.w3.org/2000/svg" viewBox="0 0 192 112"><g fill="none" fill-rule="evenodd"><path d="M0 0h192v112H0z"/><g transform="translate(39)"><g fill-rule="nonzero"><path d="M6.4 60H3.9C1.7 60 0 61.7 0 63.9s1.7 4 4 4h6.3v-4c-.2-2.2-1.8-4-4-4zm77.4 0h2.4c2.3 0 4 1.7 4 3.9s-1.7 4-4 4h-6.4v-4c.2-2.2 2-4 4-4zm-65 49.7H9.2c-2 0-3.8-1.7-3.8-3.7V91.6h17.1V106c0 2-1.6 3.7-3.7 3.7zm62.4 0h-9.6c-2 0-3.8-1.7-3.8-3.7V91.6H85V106c0 2-1.7 3.7-3.7 3.7z" fill="#560491"/><path d="M77.8 102.6H12.6c-4 0-7.3-2.8-7.9-6.7l-3-19a8 8 0 0 1 7.9-9h71.2a8 8 0 0 1 7.9 9l-3 19a8 8 0 0 1-8 6.7zm3.4-34.8h-72l7.9-20.2A12 12 0 0 1 28.4 40h33.8c4.9 0 9.4 3 11.3 7.6l7.7 20.2z" fill="#7242EC"/><path fill="#5FD5E2" d="M13.5 67.8l7-17.7a8.5 8.5 0 0 1 7.7-6.2H62c3.2 0 6.6 2.4 7.9 6.2l7 17.7H13.4z"/><g fill="#FFF" transform="translate(11.4 77.6)"><ellipse cx="59.9" cy="7.6" rx="7.5" ry="7.5"/><ellipse cx="7.5" cy="7.6" rx="7.5" ry="7.5"/><ellipse cx="59.9" cy="7.6" rx="7.5" ry="7.5"/><ellipse cx="59.9" cy="7.6" rx="4.3" ry="4.3"/><ellipse cx="7.5" cy="7.6" rx="7.5" ry="7.5"/></g><path d="M71.4 78.9c4 0 7.1 3 7.5 6.9v-.6a7.5 7.5 0 0 0-15 0v.6c.3-4 3.5-7 7.5-7zm-52.4 0c4 0 7.1 3 7.5 6.9v-.6a7.5 7.5 0 0 0-15 0v.6c.3-4 3.5-7 7.5-7z" fill="#F2F2F2"/><path d="M5.4 101.9h17.1v2.8h-17zm62.4 0H85v2.8H68z" fill="#334A5E"/><path fill="#36ADCF" d="M85.1 102.6H5.4a2.6 2.6 0 0 1-2.6-2.6v-1.7c0-1.5 1.1-2.6 2.6-2.6h79.7c1.5 0 2.6 1.1 2.6 2.6v1.7c0 1.5-1.1 2.6-2.6 2.6z"/><path d="M52.4 43.9l-19 23.7H30l19-23.7zm8 0L41.6 67.6H36l19-23.7zm-1.6 48.8H31.6s-2.1-9.4 0-11.4c4.8-4.9 22.3-4.9 27.2 0 2 2 0 11.4 0 11.4z" fill="#FFF"/></g><ellipse cx="85.4" cy="28.6" fill="#7242EC" stroke="#5FD5E2" stroke-width="2" rx="28.7" ry="28.6"/><path fill="#FFF" fill-rule="nonzero" d="M106.4 39.2H63.9s-3.3-14.6 0-17.8c7.6-7.6 34.9-7.6 42.5 0 3.2 3.2 0 17.8 0 17.8z"/><text fill="#560491" font-family="Lato-Black, Lato" font-size="8" font-weight="700"><tspan x="69.6" y="31.9">XYF-223</tspan></text></g></g></svg>