<svg xmlns="http://www.w3.org/2000/svg" viewBox="0 0 60 60"><g fill="#9724BA"><path d="M11.3 41.2H9.4V44H6.6v2h2.8v2.8h1.9V46H14v-2h-2.8z"/><path stroke="#9724BA" stroke-width="2" d="M56 17.2a10.4 10.4 0 0 0-7.3-3v-3.8h1.9a2.8 2.8 0 0 0 2.8-2.9V3.8A2.8 2.8 0 0 0 50.6 1H30a2.8 2.8 0 0 0-2.8 2.8v3.8a2.8 2.8 0 0 0 2.8 2.8h1.9V14a10.4 10.4 0 0 0-7.2 3 10.4 10.4 0 0 0-1.9 2.6H6.6a2.8 2.8 0 0 0-2.8 2.8v3.8A2.8 2.8 0 0 0 6.6 29v2h-1A4.7 4.7 0 0 0 1 35.6v18.7C1 57 3.1 59 5.7 59H59V24.6c0-2.8-1.1-5.4-3-7.4zM30 8.5a1 1 0 0 1-1-1V3.8a1 1 0 0 1 1-1h20.6a1 1 0 0 1 1 1v3.8a1 1 0 0 1-1 .9H30zm16.8 1.9V14h-13v-3.8h13zM5.7 26.3v-3.8a1 1 0 0 1 1-1h18.6a1 1 0 0 1 1 1v3.8a1 1 0 0 1-1 .9H6.6a1 1 0 0 1-1-1zM8.5 29h15v1.8h-15V29zM2.9 39.4h15v11.2h-15V39.4zM5.7 57a2.8 2.8 0 0 1-2.8-2.8v-1.9h16.8v-15H3v-1.8a2.8 2.8 0 0 1 2.8-2.8h20.6a2.8 2.8 0 0 1 2.8 2.8v18.7a2.8 2.8 0 0 1-2.8 2.8H5.7zM30 57c.6-.8 1-1.7 1-2.8V35.6c0-2.6-2.2-4.7-4.7-4.7h-1v-1.8a2.8 2.8 0 0 0 2.8-2.8v-3.8a2.8 2.8 0 0 0-2.8-2.8H25c2-2.8 4.8-3.7 7.1-3.7h16.4c2.3 0 4.5.9 6.1 2.5a8.5 8.5 0 0 1 2.5 6.1v1.7H40.3v24.3H57V57H30zm27.1-29v20.6h-15V28.1h15z"/><path d="M45 31.9h9.3v1.8H45zm0 5.6h9.3v1.9H45zm3.7 5.6h1.9V45h-1.9zm3.7 0h2V45h-2zm-7.4 0h1.8V45H45z"/></g></svg>