<svg xmlns="http://www.w3.org/2000/svg" width="57" height="64" viewBox="0 0 57 64"><g fill="#9724BA" stroke="#9724BA" stroke-width=".5"><path d="M49.4 51.7a5.6 5.6 0 1 0 0 11.2c3 0 5.6-2.5 5.6-5.6 0-3-2.6-5.6-5.6-5.6zm0 9.6a4 4 0 0 1-4.1-4 4 4 0 0 1 8.1 0 4 4 0 0 1-4 4zm-24-29a15.3 15.3 0 1 0 15.3 15.3c0-8.4-6.9-15.2-15.3-15.2zm0 29c-7.6 0-13.8-6.1-13.8-13.7a13.8 13.8 0 0 1 27.6 0c0 7.6-6.2 13.7-13.8 13.7z"/><path d="M25.4 36c-6.4 0-11.6 5.3-11.6 11.6a11.6 11.6 0 0 0 23.2 0c0-6.3-5.2-11.5-11.6-11.5zm0 21.7a10 10 0 0 1-10-10 10 10 0 0 1 20 0 10 10 0 0 1-10 10zm-4-43.2c3.7 0 6.7-3 6.7-6.8S25.1 1 21.3 1c-3.7 0-6.7 3-6.7 6.8s3 6.7 6.7 6.7zm0-12c2.8 0 5.2 2.4 5.2 5.2a5.2 5.2 0 0 1-10.5 0c0-2.8 2.4-5.2 5.2-5.2z"/><path d="M55.8 45.1a2.7 2.7 0 0 0-3.4-1.8l-2.5.8-5-11.9A3.7 3.7 0 0 0 41 30H29.4l-.2-1.9c.6.4 1.2.5 2 .5l9.2-.2a3.6 3.6 0 0 0 2.6-1 3.6 3.6 0 0 0 1-2.6 3.6 3.6 0 0 0-3.7-3.6h-2.8l-3.8.2h-.3a1.8 1.8 0 0 1-.2 0l-.2-.2-2.6-2.3-2-1.8c-.5-.4-2.7-2.5-4.3-2.4l-3.7.6a2 2 0 0 0-1.7 1A2.6 2.6 0 0 0 18 18l1.7 13a.8.8 0 0 0 .8.6.8.8 0 0 0 .7-.8l-1.6-13c0-.2 0-.5.2-.7.2-.2.4-.4.7-.4l3.6-.5c.7 0 2.3 1.1 3 2a1 1 0 0 0 .1 0l2 1.7 2.7 2.4.6.4.8.1h.3a736.6 736.6 0 0 1 3.8 0l2.8-.1a2 2 0 0 1 1.5.6 2 2 0 0 1 0 2.9 2 2 0 0 1-1.4.6L31 27c-1 0-2-.7-2.3-1.5a.8.8 0 0 0-1.5.4l.7 4.8a.8.8 0 0 0 .8.7H41a.8.8 0 0 0 .2 0 2 2 0 0 1 2.3 1.3l5.2 12.5c.2.4.6.6 1 .5l3.2-1a1.2 1.2 0 0 1 1.4.8 1.2 1.2 0 0 1-.8 1.5l-6 1.8c-1 .3-1.3.2-1.3.1a.8.8 0 0 0-.2 0c-.3-.2-.6-1-.8-1.4l-4.8-11.4a.8.8 0 0 0-1-.4.8.8 0 0 0-.4 1L43.7 48c.3.8.7 1.8 1.6 2.2.3.3.7.3 1.1.3l1.5-.2 6-1.9a2.7 2.7 0 0 0 2-3.4zM13.5 16.3c.8.3 1 1.4 1 1.6l1.9 14.8a.8.8 0 0 0 .8.7.8.8 0 0 0 .7-.8l-1.8-15c-.1-.9-.9-2.6-2.6-2.8a2.2 2.2 0 0 0-2.2-2H3.2A2.2 2.2 0 0 0 1 15v1.2a2.2 2.2 0 0 0 2.2 2.2h8a2.2 2.2 0 0 0 2.3-2zm-11-.1V15a.6.6 0 0 1 .7-.6h8a.6.6 0 0 1 .7.6v1.2a.6.6 0 0 1-.6.6H3.2a.6.6 0 0 1-.6-.6z"/></g></svg>